<svg width="28" height="28" viewBox="0 0 28 28" fill="none" xmlns="http://www.w3.org/2000/svg">
<g id="network_516499 1" clip-path="url(#clip0_301_1673)">
<g id="Group">
<g id="Group_2">
<path id="Vector" d="M0.466309 20.5331H4.19959V16.7998H0.466309V20.5331Z" fill="white" fill-opacity="0.2"/>
<path id="Vector_2" d="M23.7988 20.5331H27.5321V16.7998H23.7988V20.5331Z" fill="white" fill-opacity="0.2"/>
<path id="Vector_3" d="M0.466309 10.7331H4.19959V6.99976H0.466309V10.7331Z" fill="white" fill-opacity="0.2"/>
<path id="Vector_4" d="M12.1328 26.5998H15.8661V22.8665H12.1328V26.5998Z" fill="white" fill-opacity="0.2"/>
<path id="Vector_5" d="M12.1328 5.13324H15.8661V1.3999H12.1328V5.13324Z" fill="white" fill-opacity="0.2"/>
<path id="Vector_6" d="M23.7988 10.7331H27.5321V6.99976H23.7988V10.7331Z" fill="white" fill-opacity="0.2"/>
</g>
<g id="Group_3">
<path id="Vector_7" d="M13.9991 18.6666L9.33252 16.3333V11.2L13.9991 13.0666V18.6666Z" fill="white" fill-opacity="0.2"/>
<path id="Vector_8" d="M13.999 18.6666L18.6657 16.3333V11.2L13.999 13.0666V18.6666Z" fill="white" fill-opacity="0.2"/>
<path id="Vector_9" d="M13.9991 13.0667L9.33252 11.2L13.9991 8.8667L18.6658 11.2L13.9991 13.0667Z" fill="white" fill-opacity="0.2"/>
</g>
<g id="Group_4">
<path id="Vector_10" d="M9.79954 16.0448L13.5329 17.9115V13.3826L9.79954 11.8892V16.0448ZM13.9995 19.1332C13.9281 19.1332 13.8567 19.1169 13.7909 19.0842L9.1243 16.7509C8.96612 16.6716 8.86621 16.5101 8.86621 16.3333V11.2C8.86621 11.045 8.94321 10.9004 9.07109 10.8136C9.19991 10.7268 9.36371 10.7095 9.50604 10.7664L14.1727 12.6331C14.35 12.7045 14.4662 12.8758 14.4662 13.0666V18.6666C14.4662 18.8286 14.3821 18.9788 14.2445 19.0637C14.1699 19.1099 14.0849 19.1332 13.9995 19.1332Z" fill="white"/>
<path id="Vector_11" d="M14.4661 13.3826V17.9116L18.1994 16.0449V11.8893L14.4661 13.3826ZM13.9994 19.1333C13.914 19.1333 13.8291 19.1095 13.7544 19.0633C13.6167 18.9784 13.5327 18.8281 13.5327 18.6667V13.0667C13.5327 12.8759 13.6489 12.7041 13.8262 12.6332L18.4928 10.7665C18.6352 10.7091 18.7985 10.7264 18.9278 10.8137C19.0557 10.9004 19.1327 11.0451 19.1327 11.2001V16.3334C19.1327 16.5102 19.0328 16.6717 18.8746 16.7506L14.208 19.0839C14.1422 19.117 14.0708 19.1333 13.9994 19.1333Z" fill="white"/>
<path id="Vector_12" d="M10.472 11.1525L14.0004 12.5637L17.5284 11.1525L14.0004 9.38857L10.472 11.1525ZM14.0004 13.5335C13.9416 13.5335 13.8828 13.5223 13.8269 13.4999L9.16024 11.6333C8.98944 11.5651 8.87513 11.4032 8.86763 11.2193C8.85968 11.0359 8.96048 10.8647 9.12477 10.7825L13.7914 8.44923C13.923 8.38346 14.0779 8.38346 14.209 8.44923L18.8756 10.7825C19.0399 10.8647 19.1407 11.036 19.1332 11.2193C19.1253 11.4032 19.011 11.5651 18.8402 11.6333L14.1736 13.4999C14.1175 13.5223 14.0592 13.5335 14.0004 13.5335Z" fill="white"/>
<path id="Vector_13" d="M9.33284 11.6665C9.22737 11.6665 9.1219 11.631 9.03417 11.5582L6.36438 9.33318H4.20004C3.94195 9.33318 3.7334 9.12413 3.7334 8.86654C3.7334 8.60895 3.942 8.3999 4.20004 8.3999H6.53334C6.64254 8.3999 6.74845 8.43815 6.83246 8.50815L9.63246 10.8415C9.82984 11.0062 9.85691 11.3006 9.69218 11.4985C9.59933 11.6091 9.46678 11.6665 9.33284 11.6665Z" fill="white"/>
<path id="Vector_14" d="M18.6669 11.6665C18.533 11.6665 18.4004 11.6092 18.3076 11.4985C18.1428 11.3006 18.1699 11.0062 18.3673 10.8415L21.1673 8.50815C21.2513 8.43815 21.3572 8.3999 21.4664 8.3999H23.7997C24.0578 8.3999 24.2664 8.60895 24.2664 8.86654C24.2664 9.12413 24.0578 9.33318 23.7997 9.33318H21.6353L18.9655 11.5582C18.8779 11.6311 18.7724 11.6665 18.6669 11.6665Z" fill="white"/>
<path id="Vector_15" d="M23.7997 19.1333H21.4664C21.3572 19.1333 21.2513 19.095 21.1673 19.025L18.3673 16.6917C18.1699 16.527 18.1428 16.2325 18.3076 16.0347C18.4728 15.8368 18.7668 15.8097 18.9656 15.975L21.6354 18.2H23.7998C24.0579 18.2 24.2664 18.4091 24.2664 18.6666C24.2664 18.9242 24.0578 19.1333 23.7997 19.1333Z" fill="white"/>
<path id="Vector_16" d="M6.53334 19.1332H4.20004C3.94195 19.1332 3.7334 18.9242 3.7334 18.6666C3.7334 18.409 3.942 18.2 4.20004 18.2H6.36443L9.03422 15.9749C9.23349 15.8097 9.52699 15.8368 9.69223 16.0346C9.85697 16.2325 9.82989 16.5269 9.63252 16.6917L6.83252 19.025C6.74851 19.095 6.64254 19.1332 6.53334 19.1332Z" fill="white"/>
<path id="Vector_17" d="M13.9998 9.33336C13.7418 9.33336 13.5332 9.12431 13.5332 8.86672V5.13339C13.5332 4.8758 13.7418 4.66675 13.9998 4.66675C14.2579 4.66675 14.4665 4.8758 14.4665 5.13339V8.86672C14.4665 9.12425 14.2579 9.33336 13.9998 9.33336Z" fill="white"/>
<path id="Vector_18" d="M13.9998 23.3332C13.7418 23.3332 13.5332 23.1242 13.5332 22.8666V18.6666C13.5332 18.409 13.7418 18.2 13.9998 18.2C14.2579 18.2 14.4665 18.409 14.4665 18.6666V22.8666C14.4665 23.1242 14.2579 23.3332 13.9998 23.3332Z" fill="white"/>
<path id="Vector_19" d="M0.933278 20.0665H3.73328V17.2665H0.933278V20.0665ZM4.19992 20.9999H0.466639C0.20855 20.9999 0 20.7908 0 20.5332V16.7999C0 16.5423 0.208606 16.3333 0.466639 16.3333H4.19997C4.45756 16.3333 4.66661 16.5423 4.66661 16.7999V20.5332C4.66661 20.7908 4.45756 20.9999 4.19992 20.9999Z" fill="white"/>
<path id="Vector_20" d="M24.2663 20.0665H27.0663V17.2665H24.2663V20.0665ZM27.533 20.9999H23.7996C23.5416 20.9999 23.333 20.7908 23.333 20.5332V16.7999C23.333 16.5423 23.5416 16.3333 23.7996 16.3333H27.533C27.7906 16.3333 27.9996 16.5423 27.9996 16.7999V20.5332C27.9997 20.7908 27.7906 20.9999 27.533 20.9999Z" fill="white"/>
<path id="Vector_21" d="M0.933278 10.2667H3.73328V7.46673H0.933278V10.2667ZM4.19992 11.2001H0.466639C0.20855 11.2001 0 10.991 0 10.7334V7.00009C0 6.7425 0.208606 6.53345 0.466639 6.53345H4.19997C4.45756 6.53345 4.66661 6.7425 4.66661 7.00009V10.7334C4.66661 10.991 4.45756 11.2001 4.19992 11.2001Z" fill="white"/>
<path id="Vector_22" d="M12.5998 26.1332H15.3998V23.3332H12.5998V26.1332ZM15.8665 27.0665H12.1331C11.8751 27.0665 11.6665 26.8575 11.6665 26.5999V22.8665C11.6665 22.609 11.8751 22.3999 12.1331 22.3999H15.8665C16.1241 22.3999 16.3331 22.609 16.3331 22.8665V26.5999C16.3332 26.8575 16.1241 27.0665 15.8665 27.0665Z" fill="white"/>
<path id="Vector_23" d="M12.5998 4.66663H15.3998V1.86663H12.5998V4.66663ZM15.8665 5.59996H12.1331C11.8751 5.59996 11.6665 5.39091 11.6665 5.13332V1.39999C11.6665 1.1424 11.8751 0.93335 12.1331 0.93335H15.8665C16.1241 0.93335 16.3331 1.1424 16.3331 1.39999V5.13332C16.3332 5.39091 16.1241 5.59996 15.8665 5.59996Z" fill="white"/>
<path id="Vector_24" d="M24.2663 10.2667H27.0663V7.46673H24.2663V10.2667ZM27.533 11.2001H23.7996C23.5416 11.2001 23.333 10.991 23.333 10.7334V7.00009C23.333 6.7425 23.5416 6.53345 23.7996 6.53345H27.533C27.7906 6.53345 27.9996 6.7425 27.9996 7.00009V10.7334C27.9997 10.991 27.7906 11.2001 27.533 11.2001Z" fill="white"/>
</g>
</g>
</g>
<defs>
<clipPath id="clip0_301_1673">
<rect width="28" height="28" fill="white"/>
</clipPath>
</defs>
</svg>
