<svg width="22" height="22" viewBox="0 0 22 22" fill="none" xmlns="http://www.w3.org/2000/svg">
<g id="elements">
<path id="Ellipse 1202" d="M11 21C16.5228 21 21 16.5228 21 11C21 9.57779 20.7031 8.22492 20.1679 7L18 3.85857C16.1962 2.09032 13.7255 1 11 1C5.47715 1 1 5.47715 1 11C1 12.4222 1.29689 13.7751 1.83209 15C2.47749 15.9738 3.81464 17.9654 4 18.1414C5.80375 19.9097 8.27455 21 11 21Z" fill="white" fill-opacity="0.2"/>
<path id="Vector" d="M16.458 8.08015L16.1669 7.56619C15.9468 7.17749 15.8367 6.98314 15.6494 6.90564C15.4622 6.82814 15.2503 6.8893 14.8267 7.0116L14.1071 7.21782C13.8366 7.28127 13.5529 7.24528 13.3059 7.11619L13.1072 6.99956C12.8955 6.86157 12.7326 6.65811 12.6424 6.41896L12.4455 5.82053C12.316 5.42452 12.2512 5.22651 12.0971 5.11325C11.943 5 11.7382 5 11.3287 5H10.6713C10.2618 5 10.057 5 9.9029 5.11325C9.74876 5.22651 9.68401 5.42452 9.55452 5.82053L9.35757 6.41896C9.26741 6.65811 9.10453 6.86157 8.89276 6.99956L8.69409 7.11619C8.44713 7.24528 8.16338 7.28127 7.89292 7.21782L7.17329 7.0116C6.74966 6.8893 6.53785 6.82814 6.35056 6.90564C6.16327 6.98314 6.0532 7.17749 5.83305 7.56619L5.54196 8.08015C5.3356 8.4445 5.23243 8.62667 5.25245 8.82061C5.27248 9.01454 5.4106 9.17082 5.68686 9.48338L6.29491 10.175C6.44352 10.3664 6.54903 10.7 6.54903 10.9999C6.54903 11.3 6.44355 11.6335 6.29492 11.8249L5.68686 12.5166L5.68686 12.5166C5.4106 12.8291 5.27248 12.9854 5.25245 13.1793C5.23243 13.3733 5.33561 13.5555 5.54196 13.9198L5.83304 14.4337C6.05319 14.8224 6.16327 15.0168 6.35056 15.0943C6.53785 15.1718 6.74967 15.1106 7.17331 14.9883L7.89289 14.7821C8.1634 14.7186 8.44721 14.7547 8.69419 14.8838L8.89284 15.0004C9.10456 15.1384 9.26741 15.3419 9.35755 15.581L9.55452 16.1795C9.68401 16.5755 9.74876 16.7735 9.9029 16.8867C10.057 17 10.2618 17 10.6713 17H11.3287C11.7382 17 11.943 17 12.0971 16.8867C12.2512 16.7735 12.316 16.5755 12.4455 16.1795L12.6424 15.581C12.7326 15.3419 12.8954 15.1384 13.1072 15.0004L13.3058 14.8838C13.5528 14.7547 13.8366 14.7186 14.1071 14.7821L14.8267 14.9883C15.2503 15.1106 15.4621 15.1718 15.6494 15.0943C15.8367 15.0168 15.9468 14.8224 16.167 14.4338L16.167 14.4337L16.458 13.9198C16.6644 13.5555 16.7676 13.3733 16.7475 13.1793C16.7275 12.9854 16.5894 12.8291 16.3131 12.5166L15.7051 11.8249C15.5564 11.6335 15.451 11.3 15.451 10.9999C15.451 10.7 15.5565 10.3664 15.7051 10.175L16.3131 9.48338C16.5894 9.17082 16.7275 9.01454 16.7475 8.82061C16.7676 8.62667 16.6644 8.4445 16.458 8.08015Z" fill="white" fill-opacity="0.2"/>
<path id="Vector_2" d="M16.458 8.08015L16.1669 7.56619C15.9468 7.17749 15.8367 6.98314 15.6494 6.90564C15.4622 6.82814 15.2503 6.8893 14.8267 7.0116L14.1071 7.21782C13.8366 7.28127 13.5529 7.24528 13.3059 7.11619L13.1072 6.99956C12.8955 6.86157 12.7326 6.65811 12.6424 6.41896L12.4455 5.82053C12.316 5.42452 12.2512 5.22651 12.0971 5.11325C11.943 5 11.7382 5 11.3287 5H10.6713C10.2618 5 10.057 5 9.9029 5.11325C9.74876 5.22651 9.68401 5.42452 9.55452 5.82053L9.35757 6.41896C9.26741 6.65811 9.10453 6.86157 8.89276 6.99956L8.69409 7.11619C8.44713 7.24528 8.16338 7.28127 7.89292 7.21782L7.17329 7.0116C6.74966 6.8893 6.53785 6.82814 6.35056 6.90564C6.16327 6.98314 6.0532 7.17749 5.83305 7.56619L5.54196 8.08015C5.3356 8.4445 5.23243 8.62667 5.25245 8.82061C5.27248 9.01454 5.4106 9.17082 5.68686 9.48338L6.29491 10.175C6.44352 10.3664 6.54903 10.7 6.54903 10.9999C6.54903 11.3 6.44355 11.6335 6.29492 11.8249L5.68686 12.5166L5.68686 12.5166C5.4106 12.8291 5.27248 12.9854 5.25245 13.1793C5.23243 13.3733 5.33561 13.5555 5.54196 13.9198L5.83304 14.4337C6.05319 14.8224 6.16327 15.0168 6.35056 15.0943C6.53785 15.1718 6.74967 15.1106 7.17331 14.9883L7.89289 14.7821C8.1634 14.7186 8.44721 14.7547 8.69419 14.8838L8.89284 15.0004C9.10456 15.1384 9.26741 15.3419 9.35755 15.581L9.55452 16.1795C9.68401 16.5755 9.74876 16.7735 9.9029 16.8867C10.057 17 10.2618 17 10.6713 17H11.3287C11.7382 17 11.943 17 12.0971 16.8867C12.2512 16.7735 12.316 16.5755 12.4455 16.1795L12.6424 15.581C12.7326 15.3419 12.8954 15.1384 13.1072 15.0004L13.3058 14.8838C13.5528 14.7547 13.8366 14.7186 14.1071 14.7821L14.8267 14.9883C15.2503 15.1106 15.4621 15.1718 15.6494 15.0943C15.8367 15.0168 15.9468 14.8224 16.167 14.4338L16.167 14.4337L16.458 13.9198C16.6644 13.5555 16.7676 13.3733 16.7475 13.1793C16.7275 12.9854 16.5894 12.8291 16.3131 12.5166L15.7051 11.8249C15.5564 11.6335 15.451 11.3 15.451 10.9999C15.451 10.7 15.5565 10.3664 15.7051 10.175L16.3131 9.48338C16.5894 9.17082 16.7275 9.01454 16.7475 8.82061C16.7676 8.62667 16.6644 8.4445 16.458 8.08015Z" stroke="white" stroke-width="1.5" stroke-linecap="round"/>
<circle id="Ellipse 1203" cx="11" cy="11" r="1.75" fill="white" fill-opacity="0.2"/>
<circle id="Ellipse 1200" cx="11" cy="11" r="1.75" stroke="white" stroke-width="1.5"/>
<path id="Ellipse 1201" d="M18 1V3.85857C16.1962 2.09032 13.7255 1 11 1C5.47715 1 1 5.47715 1 11C1 12.4222 1.29689 13.7751 1.83209 15M4 21V18.1414C5.80375 19.9097 8.27455 21 11 21C16.5228 21 21 16.5228 21 11C21 9.57779 20.7031 8.22492 20.1679 7" stroke="white" stroke-width="1.5" stroke-linecap="round" stroke-linejoin="round"/>
</g>
</svg>
