<svg width="22" height="20" viewBox="0 0 22 20" fill="none" xmlns="http://www.w3.org/2000/svg">
<g id="elements">
<path id="Vector" d="M18.4626 1.99352C15.7809 0.348596 13.4404 1.01148 12.0344 2.06738C11.4578 2.50033 11.1696 2.7168 11 2.7168C10.8304 2.7168 10.5422 2.50033 9.96565 2.06738C8.55962 1.01148 6.21908 0.348596 3.53744 1.99352C0.0180664 4.1523 -0.778282 11.2742 7.33953 17.2827C8.88572 18.4272 9.65881 18.9994 11 18.9994C12.3412 18.9994 13.1143 18.4272 14.6605 17.2827C22.7783 11.2742 21.9819 4.1523 18.4626 1.99352Z" fill="#2A5FDD" fill-opacity="0.2"/>
<path id="Vector_2" d="M18.4626 1.99352C15.7809 0.348596 13.4404 1.01148 12.0344 2.06738C11.4578 2.50033 11.1696 2.7168 11 2.7168C10.8304 2.7168 10.5422 2.50033 9.96565 2.06738C8.55962 1.01148 6.21909 0.348596 3.53744 1.99352C0.0180671 4.1523 -0.778281 11.2742 7.33953 17.2827C8.88572 18.4272 9.65881 18.9994 11 18.9994C12.3412 18.9994 13.1143 18.4272 14.6605 17.2827C22.7783 11.2742 21.9819 4.1523 18.4626 1.99352Z" stroke="#2A5FDD" stroke-width="1.5" stroke-linecap="round"/>
<path id="Vector_3" d="M11 7V13M8 10L14 10" stroke="#2A5FDD" stroke-width="1.5" stroke-linecap="round"/>
</g>
</svg>
