<svg width="24" height="24" viewBox="0 0 24 24" fill="none" xmlns="http://www.w3.org/2000/svg">
<g id="smart-watch-03">
<g id="elements">
<path id="Rectangle 2211" d="M6 12.5C6 9.21252 6 7.56878 6.72637 6.46243C6.85934 6.25989 7.00791 6.07418 7.16994 5.90796C8.05502 5 9.37001 5 12 5C14.63 5 15.945 5 16.8301 5.90796C16.9921 6.07418 17.1407 6.25989 17.2736 6.46243C18 7.56878 18 9.21252 18 12.5C18 15.7875 18 17.4312 17.2736 18.5376C17.1407 18.7401 16.9921 18.9258 16.8301 19.092C15.945 20 14.63 20 12 20C9.37001 20 8.05502 20 7.16994 19.092C7.00791 18.9258 6.85934 18.7401 6.72637 18.5376C6 17.4312 6 15.7875 6 12.5Z" fill="#2A5FDD" fill-opacity="0.2"/>
<path id="Rectangle 2207" d="M6 12.5C6 9.43168 6 7.89753 6.72637 6.86493C6.85934 6.6759 7.00791 6.50256 7.16994 6.34743C8.05502 5.5 9.37001 5.5 12 5.5C14.63 5.5 15.945 5.5 16.8301 6.34743C16.9921 6.50256 17.1407 6.6759 17.2736 6.86493C18 7.89753 18 9.43168 18 12.5C18 15.5683 18 17.1025 17.2736 18.1351C17.1407 18.3241 16.9921 18.4974 16.8301 18.6526C15.945 19.5 14.63 19.5 12 19.5C9.37001 19.5 8.05502 19.5 7.16994 18.6526C7.00791 18.4974 6.85934 18.3241 6.72637 18.1351C6 17.1025 6 15.5683 6 12.5Z" stroke="#2A5FDD" stroke-width="1.5"/>
<path id="Rectangle 2209" d="M9 22H15" stroke="#2A5FDD" stroke-width="1.5" stroke-linecap="round"/>
<path id="Rectangle 2210" d="M9 2H15" stroke="#2A5FDD" stroke-width="1.5" stroke-linecap="round"/>
</g>
</g>
</svg>
